<svg version="1.1" id="Layer_1" xmlns="http://www.w3.org/2000/svg" xmlns:xlink="http://www.w3.org/1999/xlink" x="0px" y="0px"
	 width="100%" viewBox="0 0 2126 2126" enable-background="new 0 0 2126 2126" xml:space="preserve">
<path fill="#FFFFFF" opacity="1.000000" stroke="none" 
	d="
M994.000000,2.000000 
	C1042.041748,2.000000 1090.083618,2.000000 1138.448730,2.750581 
	C1140.158691,4.215523 1141.495239,5.422878 1142.939819,5.570133 
	C1163.696411,7.686022 1184.504639,9.339335 1205.227905,11.731690 
	C1251.422729,17.064575 1296.853394,26.499176 1341.746216,38.481136 
	C1402.843872,54.788185 1462.062866,76.339378 1519.192139,103.476433 
	C1573.049438,129.059143 1624.598999,158.630524 1673.544067,192.782043 
	C1721.913330,226.531601 1767.345337,263.847015 1809.332886,305.168030 
	C1831.819336,327.297607 1853.076294,350.761749 1873.850708,374.530243 
	C1940.404419,450.676575 1993.495972,535.596619 2035.408813,627.466370 
	C2064.284424,690.759521 2086.406250,756.462646 2101.989990,824.316223 
	C2111.048828,863.758301 2118.319580,903.502991 2122.344482,943.801331 
	C2123.035645,950.722229 2123.624512,957.654663 2124.438477,964.560852 
	C2124.656982,966.412964 2124.184570,969.604675 2128.000000,968.000000 
	C2128.000000,1032.708496 2128.000000,1097.416870 2127.258301,1162.449463 
	C2125.798096,1164.155762 2124.613525,1165.479248 2124.431152,1166.928955 
	C2121.416016,1190.907349 2119.367920,1215.039917 2115.445557,1238.865234 
	C2105.190186,1301.162476 2089.492920,1362.092651 2068.278320,1421.631470 
	C2036.078857,1511.999634 1992.459961,1596.400269 1937.511353,1674.984619 
	C1901.430298,1726.586060 1861.034546,1774.600586 1816.346924,1818.923462 
	C1799.134399,1835.995605 1781.193970,1852.381958 1762.958740,1868.366333 
	C1701.723389,1922.043335 1634.917236,1967.754639 1562.911133,2005.720337 
	C1505.818359,2035.823120 1446.537964,2060.798828 1384.814941,2079.952881 
	C1317.810913,2100.745850 1249.579468,2115.358398 1179.743896,2122.317871 
	C1172.166016,2123.073242 1164.567749,2123.625000 1156.990967,2124.389893 
	C1155.025513,2124.588379 1151.864502,2124.219482 1154.000000,2128.000000 
	C1096.624878,2128.000000 1039.249756,2128.000000 981.461182,2127.226562 
	C979.599304,2125.766357 978.184082,2124.563477 976.697449,2124.468018 
	C940.610413,2122.141602 904.937866,2116.767334 869.419617,2110.179199 
	C808.593811,2098.896729 749.262390,2082.268311 691.402222,2060.408936 
	C627.518005,2036.273804 566.563110,2006.186279 508.421875,1970.346191 
	C439.941650,1928.133179 377.296997,1878.496460 319.870239,1822.255981 
	C306.811401,1809.466675 294.501678,1795.902710 282.034485,1782.520874 
	C250.050079,1748.189941 221.090485,1711.428589 194.162674,1673.023682 
	C157.996887,1621.443481 127.024223,1566.907349 100.596535,1509.754028 
	C79.663345,1464.483398 62.164810,1417.937378 47.856628,1370.146973 
	C36.618122,1332.609619 27.139261,1294.632690 20.570618,1256.052002 
	C15.407674,1225.727661 12.017848,1195.090454 8.307288,1164.535400 
	C6.790745,1152.047241 6.558365,1139.405518 5.607791,1126.843872 
	C5.443944,1124.678467 6.508623,1121.126831 2.000000,1122.000000 
	C2.000000,1092.624878 2.000000,1063.249756 2.794628,1033.130127 
	C4.114327,1024.041870 4.639399,1015.698181 5.164468,1007.354553 
	C4.109643,1007.569702 3.054820,1007.784851 1.999999,1008.000000 
	C2.000000,1003.258850 2.000000,998.517761 2.688362,993.718323 
	C4.334651,992.595337 5.968500,991.625793 6.134062,990.449463 
	C6.870814,985.215698 7.290699,979.929565 7.639009,974.650085 
	C9.997843,938.897278 15.340063,903.550049 21.827198,868.345215 
	C33.223820,806.497437 50.264568,746.215332 72.640167,687.487610 
	C98.626984,619.281738 131.368423,554.415833 170.727142,492.918854 
	C210.283493,431.113129 255.713837,373.925232 307.157562,321.649506 
	C327.429596,301.049622 348.718231,281.368988 370.448853,262.301056 
	C431.662415,208.588013 498.553528,162.961685 570.602722,125.030228 
	C627.436768,95.109055 686.424622,70.277130 747.832397,51.189625 
	C818.677246,29.168758 890.836548,13.963666 964.808289,7.664947 
	C973.059631,6.962344 981.326416,6.423889 989.564148,5.592008 
	C991.543518,5.392118 995.364380,6.656312 994.000000,2.000000 
M984.338318,1598.994873 
	C984.338318,1402.796021 984.338318,1206.597046 984.338318,1010.401855 
	C1073.178345,1010.401855 1160.935913,1010.401855 1249.414551,1010.401855 
	C1249.414551,1216.656616 1249.414551,1422.185547 1249.414551,1627.750977 
	C1341.648315,1627.750977 1433.156006,1627.750977 1525.002686,1627.750977 
	C1525.002686,1345.098511 1525.002686,1063.033813 1525.002686,780.012329 
	C1344.554810,780.012329 1164.770386,780.012329 984.357910,780.012329 
	C984.357910,759.456482 984.163452,739.847778 984.481384,720.247375 
	C984.571838,714.667786 985.742981,709.009216 987.115601,703.562561 
	C995.520081,670.212280 1017.164856,649.705017 1049.642578,640.047546 
	C1065.393677,635.363831 1081.617188,634.294556 1097.970947,634.316406 
	C1144.632324,634.378723 1191.293823,634.338318 1237.955200,634.338318 
	C1241.465942,634.338318 1244.976685,634.338318 1248.491577,634.338318 
	C1248.491577,557.385315 1248.491577,481.853729 1248.491577,405.661652 
	C1244.334839,405.661652 1240.701782,405.661621 1237.068726,405.661621 
	C1175.409058,405.661621 1113.749268,405.690735 1052.089600,405.646393 
	C1029.448608,405.630096 1006.894287,406.681061 984.416138,409.611755 
	C933.752319,416.217255 885.915161,431.118256 842.292053,458.141235 
	C798.689392,485.151611 764.333984,520.941956 740.383667,566.556152 
	C717.370300,610.385742 706.953186,657.221924 706.375305,706.439209 
	C706.117065,728.433716 706.351318,750.433838 706.304382,772.431213 
	C706.299011,774.957764 705.921631,777.483459 705.679260,780.471436 
	C653.722412,780.471436 602.429565,780.471191 551.136658,780.478333 
	C550.807983,780.478394 550.454163,780.524719 550.157898,780.654297 
	C549.871338,780.779602 549.634338,781.029785 549.393494,781.245117 
	C549.145325,781.466919 548.918823,781.712891 548.684021,781.949463 
	C546.643738,818.553650 547.673950,1001.697693 550.157227,1009.977661 
	C601.838562,1009.977661 653.716797,1009.977661 706.617004,1009.977661 
	C706.617004,1216.378540 706.617004,1422.134888 706.617004,1627.634521 
	C799.783813,1627.634521 891.919189,1627.634521 984.338318,1627.634521 
	C984.338318,1618.285034 984.338318,1609.638062 984.338318,1598.994873 
z"/>
<path fill="#000000" opacity="1.000000" stroke="none" 
	d="
M993.062683,2.000000 
	C995.364380,6.656312 991.543518,5.392118 989.564148,5.592008 
	C981.326416,6.423889 973.059631,6.962344 964.808289,7.664947 
	C890.836548,13.963666 818.677246,29.168758 747.832397,51.189625 
	C686.424622,70.277130 627.436768,95.109055 570.602722,125.030228 
	C498.553528,162.961685 431.662415,208.588013 370.448853,262.301056 
	C348.718231,281.368988 327.429596,301.049622 307.157562,321.649506 
	C255.713837,373.925232 210.283493,431.113129 170.727142,492.918854 
	C131.368423,554.415833 98.626984,619.281738 72.640167,687.487610 
	C50.264568,746.215332 33.223820,806.497437 21.827198,868.345215 
	C15.340063,903.550049 9.997843,938.897278 7.639009,974.650085 
	C7.290699,979.929565 6.870814,985.215698 6.134062,990.449463 
	C5.968500,991.625793 4.334651,992.595337 2.688362,992.830017 
	C2.000000,662.145691 2.000000,332.291351 2.000000,2.000000 
	C332.041656,2.000000 662.083496,2.000000 993.062683,2.000000 
z"/>
<path fill="#000000" opacity="1.000000" stroke="none" 
	d="
M2.000000,1122.937256 
	C6.508623,1121.126831 5.443944,1124.678467 5.607791,1126.843872 
	C6.558365,1139.405518 6.790745,1152.047241 8.307288,1164.535400 
	C12.017848,1195.090454 15.407674,1225.727661 20.570618,1256.052002 
	C27.139261,1294.632690 36.618122,1332.609619 47.856628,1370.146973 
	C62.164810,1417.937378 79.663345,1464.483398 100.596535,1509.754028 
	C127.024223,1566.907349 157.996887,1621.443481 194.162674,1673.023682 
	C221.090485,1711.428589 250.050079,1748.189941 282.034485,1782.520874 
	C294.501678,1795.902710 306.811401,1809.466675 319.870239,1822.255981 
	C377.296997,1878.496460 439.941650,1928.133179 508.421875,1970.346191 
	C566.563110,2006.186279 627.518005,2036.273804 691.402222,2060.408936 
	C749.262390,2082.268311 808.593811,2098.896729 869.419617,2110.179199 
	C904.937866,2116.767334 940.610413,2122.141602 976.697449,2124.468018 
	C978.184082,2124.563477 979.599304,2125.766357 980.523926,2127.226562 
	C654.143799,2128.000000 328.287537,2128.000000 2.000000,2128.000000 
	C2.000000,1793.291626 2.000000,1458.583130 2.000000,1122.937256 
z"/>
<path fill="#000000" opacity="1.000000" stroke="none" 
	d="
M2128.000000,967.062683 
	C2124.184570,969.604675 2124.656982,966.412964 2124.438477,964.560852 
	C2123.624512,957.654663 2123.035645,950.722229 2122.344482,943.801331 
	C2118.319580,903.502991 2111.048828,863.758301 2101.989990,824.316223 
	C2086.406250,756.462646 2064.284424,690.759521 2035.408813,627.466370 
	C1993.495972,535.596619 1940.404419,450.676575 1873.850708,374.530243 
	C1853.076294,350.761749 1831.819336,327.297607 1809.332886,305.168030 
	C1767.345337,263.847015 1721.913330,226.531601 1673.544067,192.782043 
	C1624.598999,158.630524 1573.049438,129.059143 1519.192139,103.476433 
	C1462.062866,76.339378 1402.843872,54.788185 1341.746216,38.481136 
	C1296.853394,26.499176 1251.422729,17.064575 1205.227905,11.731690 
	C1184.504639,9.339335 1163.696411,7.686022 1142.939819,5.570133 
	C1141.495239,5.422878 1140.158691,4.215523 1139.385986,2.750581 
	C1469.185791,2.000000 1798.371582,2.000000 2128.000000,2.000000 
	C2128.000000,323.375000 2128.000000,644.750183 2128.000000,967.062683 
z"/>
<path fill="#000000" opacity="1.000000" stroke="none" 
	d="
M1154.937256,2128.000000 
	C1151.864502,2124.219482 1155.025513,2124.588379 1156.990967,2124.389893 
	C1164.567749,2123.625000 1172.166016,2123.073242 1179.743896,2122.317871 
	C1249.579468,2115.358398 1317.810913,2100.745850 1384.814941,2079.952881 
	C1446.537964,2060.798828 1505.818359,2035.823120 1562.911133,2005.720337 
	C1634.917236,1967.754639 1701.723389,1922.043335 1762.958740,1868.366333 
	C1781.193970,1852.381958 1799.134399,1835.995605 1816.346924,1818.923462 
	C1861.034546,1774.600586 1901.430298,1726.586060 1937.511353,1674.984619 
	C1992.459961,1596.400269 2036.078857,1511.999634 2068.278320,1421.631470 
	C2089.492920,1362.092651 2105.190186,1301.162476 2115.445557,1238.865234 
	C2119.367920,1215.039917 2121.416016,1190.907349 2124.431152,1166.928955 
	C2124.613525,1165.479248 2125.798096,1164.155762 2127.258301,1163.386719 
	C2128.000000,1458.708496 2128.000000,1753.416992 2127.072998,2049.212402 
	C2101.593994,2050.299072 2077.041748,2050.299072 2052.000000,2050.299072 
	C2052.000000,2076.875488 2052.000000,2102.437744 2052.000000,2128.000000 
	C1753.291504,2128.000000 1454.583130,2128.000000 1154.937256,2128.000000 
z"/>
<path fill="#00000" opacity="1.000000" stroke="none" 
	d="
M2052.937256,2128.000000 
	C2052.000000,2102.437744 2052.000000,2076.875488 2052.000000,2050.299072 
	C2077.041748,2050.299072 2101.593994,2050.299072 2127.072998,2050.149414 
	C2128.000000,2075.851318 2128.000000,2101.702881 2128.000000,2128.000000 
	C2103.293213,2128.000000 2078.583984,2128.000000 2052.937256,2128.000000 
z"/>
<path fill="#515151" opacity="1.000000" stroke="none" 
	d="
M1.999999,1008.921265 
	C3.054820,1007.784851 4.109643,1007.569702 5.164468,1007.354553 
	C4.639399,1015.698181 4.114327,1024.041870 2.794628,1032.192749 
	C2.000000,1024.614136 2.000000,1017.228333 1.999999,1008.921265 
z"/>
<path fill="#010101" opacity="1.000000" stroke="none" 
	d="
M984.338318,1599.992920 
	C984.338318,1609.638062 984.338318,1618.285034 984.338318,1627.634521 
	C891.919189,1627.634521 799.783813,1627.634521 706.617004,1627.634521 
	C706.617004,1422.134888 706.617004,1216.378540 706.617004,1009.977661 
	C653.716797,1009.977661 601.838562,1009.977661 550.157227,1009.977661 
	C547.673950,1001.697693 546.643738,818.553650 548.683472,781.948853 
	C548.918823,781.712891 549.145325,781.466919 549.393494,781.245117 
	C549.634338,781.029785 549.871338,780.779602 550.157898,780.654297 
	C550.454163,780.524719 550.807983,780.478394 551.136658,780.478333 
	C602.429565,780.471191 653.722412,780.471436 705.679260,780.471436 
	C705.921631,777.483459 706.299011,774.957764 706.304382,772.431213 
	C706.351318,750.433838 706.117065,728.433716 706.375305,706.439209 
	C706.953186,657.221924 717.370300,610.385742 740.383667,566.556152 
	C764.333984,520.941956 798.689392,485.151611 842.292053,458.141235 
	C885.915161,431.118256 933.752319,416.217255 984.416138,409.611755 
	C1006.894287,406.681061 1029.448608,405.630096 1052.089600,405.646393 
	C1113.749268,405.690735 1175.409058,405.661621 1237.068726,405.661621 
	C1240.701782,405.661621 1244.334839,405.661652 1248.491577,405.661652 
	C1248.491577,481.853729 1248.491577,557.385315 1248.491577,634.338318 
	C1244.976685,634.338318 1241.465942,634.338318 1237.955200,634.338318 
	C1191.293823,634.338318 1144.632324,634.378723 1097.970947,634.316406 
	C1081.617188,634.294556 1065.393677,635.363831 1049.642578,640.047546 
	C1017.164856,649.705017 995.520081,670.212280 987.115601,703.562561 
	C985.742981,709.009216 984.571838,714.667786 984.481384,720.247375 
	C984.163452,739.847778 984.357910,759.456482 984.357910,780.012329 
	C1164.770386,780.012329 1344.554810,780.012329 1525.002686,780.012329 
	C1525.002686,1063.033813 1525.002686,1345.098511 1525.002686,1627.750977 
	C1433.156006,1627.750977 1341.648315,1627.750977 1249.414551,1627.750977 
	C1249.414551,1422.185547 1249.414551,1216.656616 1249.414551,1010.401855 
	C1160.935913,1010.401855 1073.178345,1010.401855 984.338318,1010.401855 
	C984.338318,1206.597046 984.338318,1402.796021 984.338318,1599.992920 
z"/>
</svg>